# xmcd CD database file
#
# Track frame offsets:
#	150
#	10565
#	27277
#	43200
#	60137
#	79282
#	98627
#	115647
#	134600
#	149307
#	163992
#	179152
#	194002
#	211370
#
# Disc length: 3015 seconds
#
# Revision: 1
# Processed by: cddbd v1.5.2PL0 Copyright (c) Steve Scherf et al.
# Submitted via: CDex 1.70beta2
#
DISCID=c60bc50e
DTITLE=Heidi Hauge - Country Girl
DYEAR=2001
DGENRE=Country
TTITLE0=I'm gonna be a country girl again
TTITLE1=Blue rose is
TTITLE2=Alene mot mamma
TTITLE3=Blanket on the ground
TTITLE4=I don't wanna play house
TTITLE5=That'll be me
TTITLE6=Når du har reist fra meg
TTITLE7=You got gold
TTITLE8=Honkey tonk angels
TTITLE9=Livets landevei
TTITLE10=Don't tell me what to do
TTITLE11=A song I can sing
TTITLE12=Min barndoms grønne dal
TTITLE13=Coal miners doughter
EXTD=YEAR: 2001
EXTT0=
EXTT1=
EXTT2=
EXTT3=
EXTT4=
EXTT5=
EXTT6=
EXTT7=
EXTT8=
EXTT9=
EXTT10=
EXTT11=
EXTT12=
EXTT13=
PLAYORDER=
